<svg width="580" height="400" xmlns="http://www.w3.org/2000/svg">
 <!-- Created with Method Draw - http://github.com/duopixel/Method-Draw/ -->
 <g>
  <title>background</title>
  <rect fill="#fff" id="canvas_background" height="402" width="582" y="-1" x="-1"/>
  <g display="none" overflow="visible" y="0" x="0" height="100%" width="100%" id="canvasGrid">
   <rect fill="url(#gridpattern)" stroke-width="0" y="0" x="0" height="100%" width="100%"/>
  </g>
 </g>
 <g>
  <title>Layer 1</title>
  <path d="m244.5,54.5c-3,0 -5,-1 -8,-1c-4,0 -7,0 -12,0c-3,0 -8.14514,-1.06773 -12,0c-5.61937,1.55648 -4.98499,5.28252 -11,9c-2.68999,1.66251 -6.41092,5.69238 -11,9c-3.62799,2.61491 -9,7 -11,11c-1,2 -4,8 -5,11c-1,3 -2.06982,7.98878 -3,14c-1.08131,6.9879 -1.52528,12.08442 -3,19c-1.51831,7.12003 -3.49829,11.93796 -4,18c-0.4124,4.98296 0,10 0,17c0,7 -0.68976,12.03407 0,19c0.50244,5.0742 3.35724,11.25406 6,17c2.43651,5.2975 5.47328,11.29366 9,17c2.62866,4.25325 5.28026,7.67287 10,12c2.65765,2.43658 5,5 6,6c4,4 7.45807,5.66446 11,8c4.49576,2.96448 10.96384,5.11586 14,6c3.95868,1.15277 11.05603,3.62399 19,5c9.08427,1.57352 17.96262,4.49937 28,5c9.98758,0.49814 22.04199,0.58365 34,2c13.06165,1.54709 28,2 43,2c16,0 30,0 43,0c12,0 22.28519,-0.42661 32,-3c9.52051,-2.52193 18.29367,-7.47328 24,-11c4.25327,-2.62866 9.55801,-7.07764 15,-11c4.58908,-3.30762 7.22021,-7.79488 10,-11c3.276,-3.77727 7,-9 9,-13c2,-4 3.49622,-7.90779 4,-12c0.61093,-4.96254 0,-12 0,-17c0,-5 -0.29349,-9.88138 -3,-17c-2.24762,-5.9117 -5.53986,-12.25305 -9,-18c-4.43713,-7.36966 -12.96881,-17.03522 -22,-25c-7.9726,-7.0312 -18.90274,-16.1319 -27,-22c-9.88394,-7.16293 -18.9549,-10.07292 -27,-15c-4.97253,-3.04533 -13.40402,-5.41156 -18,-9c-1.11469,-0.87032 -6.26205,-4.15815 -12,-7c-3.69476,-1.82993 -8.198,-1.63297 -14,-5c-3.11847,-1.80972 -6.70251,-3.5635 -12,-6c-2.87296,-1.32138 -8,-2 -14,-5c-2,-1 -5,-1 -7,-1c-2,0 -3,0 -5,0c-2,0 -5,0 -7,0c-4,0 -8,0 -12,0c-2,0 -5,0 -6,0c-2,0 -3,0 -4,0c-2,0 -3,0 -6,0c-3,0 -4.92767,-1.23173 -11,-3c-3.95868,-1.15277 -6,-1 -11,-1c-3,0 -3.87856,-0.49346 -7,-1c-1.97418,-0.32037 -3,0 -4,0c-2,0 -3,0 -4,0c-1,0 -3,0 -4,0c-1,0 -3,0 -5,0c-3,0 -4,0 -3,2l4,5" id="svg_1" stroke-width="1.5" stroke="#000" fill="none"/>
  <path d="m224.5,109.5c2,0 7,0 11,1c0,0 7.40683,0.18817 14,4c4.32863,2.50259 8.31854,3.2213 14,6c6.47784,3.16821 11.31854,5.2213 17,8c3.23892,1.58411 4.61731,3.07613 5,4c0.5412,1.30656 1,3 1,4c0,1 0.17624,2.48625 -2,3c-0.97324,0.22975 -3.00372,1.85056 -6,2c-10.03738,0.50063 -15,1 -19,1c-5,0 -8,0 -10,0c-4,0 -8,0 -10,0c-1,0 -3.22836,1.14806 -6,0c-1.30656,-0.5412 -4.31001,-1.33749 -7,-3c-3.60901,-2.23048 -6.22624,-2.22884 -9,-8c-0.43318,-0.90131 -3.48625,-3.82375 -4,-6c-0.4595,-1.9465 0,-3 0,-4c0,-2 0,-3 0,-4c0,-1 -0.38269,-2.07612 0,-3c0.5412,-1.30656 2,-1 4,-1c3,0 8,0 11,0c3,0 5,0 6,0l1,0l1,0l1,0" id="svg_2" stroke-width="1.5" stroke="#000" fill="none"/>
  <path d="m254.5,124.5c-1,1 -2.07613,1.61732 -3,2c-2.61313,1.08239 -3.4588,1.69344 -4,3c-0.38269,0.92387 0,2 0,3c0,1 -0.70711,2.29289 0,3c1.41422,1.41422 2,1 4,1c1,0 3,0 4,0c1,0 2.02676,0.22975 3,0c2.17624,-0.51375 2,-2 2,-3c0,-1 0.76538,-4.15224 0,-6c-0.5412,-1.30656 -2,-2 -3,-2l-1,0l-2,0l-1,0" id="svg_3" stroke-width="1.5" stroke="#000" fill="none"/>
  <path d="m389.5,122.5c0,2 -0.14804,5.22836 1,8c1.6236,3.91969 4,7 4,8c0,1 0.38687,3.9176 3,5c0.92389,0.38269 0.76108,2.41589 4,4c2.84073,1.38936 5.9176,1.38687 7,4c0.38269,0.92387 0,2 0,3c0,2 0,3 -3,3c-4,0 -6,0 -9,0c-4,0 -6,0 -10,0c-3,0 -8,0 -15,-1c-7,-1 -14.04132,-4.84723 -18,-6c-6.07233,-1.76826 -13.05182,-2.61073 -22,-4c-5.03867,-0.78229 -9.4588,-0.69344 -10,-2c-0.76538,-1.84776 -1,-3 -1,-4c0,-2 -0.22977,-3.02675 0,-4c0.51373,-2.17625 2,-2 3,-3c1,-1 2,-3 3,-3c1,0 3.4588,0.30656 4,-1c0.38269,-0.92387 2,-1 3,-1c1,0 3,0 5,0c4,0 9,0 11,0c3,0 6,0 10,0c2,0 3,0 6,0c2,0 3,0 4,0c2,0 2.54916,1.95517 6,3c1.91418,0.57957 3,0 4,0c1,0 2,0 3,1l2,1l1,2" id="svg_4" stroke-width="1.5" stroke="#000" fill="none"/>
  <path d="m370.5,135.5c-2,1 -3.48627,3.82375 -4,6c-0.4595,1.9465 0,3 0,4c0,2 2.02676,2.22975 3,2c2.17624,-0.51375 3.07611,-1.61731 4,-2c3.91968,-1.62358 3,-5 3,-6c0,-1 0,-2 0,-4l-1,-1" id="svg_5" stroke-width="1.5" stroke="#000" fill="none"/>
  <path d="m296.5,192.5c0,1 0,3 0,5c0,1 0,2 0,4c0,0 0,2 0,3c0,1 -0.71411,3.21167 -3,6c-0.89661,1.09367 -0.41885,2.41885 -2,4c-1.58115,1.58115 -2,3 -2,5c0,2 0,4 0,6c0,1 1.14935,1.47427 2,2c1.9021,1.17557 2.15225,2.23463 4,3c1.30655,0.5412 3.54916,1.95517 7,3c0.95709,0.28978 4.0535,0.5405 6,1c2.17624,0.51375 2.82376,1.48625 5,2c0.97324,0.22975 3,0 4,0c2,0 3,0 6,0c2,0 5,0 6,0c3,0 6,0 7,0c1,0 3,0 3,-3c0,-1 0.24435,-4.01498 0,-6c-0.50378,-4.09221 -2.54901,-6.60641 -6,-12c-1.20514,-1.88351 -1.724,-2.22273 -5,-6c-0.92661,-1.06837 -1.41885,-3.41885 -3,-5c-1.58115,-1.58115 -1.33749,-3.31001 -3,-6c-0.7435,-1.203 -2.9176,-1.38687 -4,-4c-0.38269,-0.92387 -0.69254,-2.186 -2,-4c-0.8269,-1.14726 -0.0979,-2.82443 -2,-4c-0.85065,-0.52573 -3,0 -4,0c-2,0 -3,0 -4,0c-1,0 -2,0 -3,0l-2,0l-1,0" id="svg_6" stroke-width="1.5" stroke="#000" fill="none"/>
  <path d="m292.5,140.5c-1,0 -3.3764,1.08031 -5,5c-0.38269,0.92387 -2.69345,4.4588 -4,5c-0.92389,0.38269 -1.41885,0.41885 -3,2c-1.58115,1.58115 -1,3 -1,4c0,2 0.29291,4.29289 1,5c0.70709,0.70711 2.15225,-0.76537 4,0c1.30655,0.5412 1.82376,3.48625 4,4c0.97324,0.22975 2,0 3,0c1,0 2,0 3,0c1,0 2,0 3,0c2,0 2,-1 2,-2c0,-1 0,-4 0,-5c0,-2 0,-4 0,-6c0,-2 0,-3 0,-5c0,-1 -0.77023,-4.02675 -1,-5c-0.51373,-2.17625 -2,-2 -3,-2l-2,0l-1,-1" id="svg_7" stroke-width="1.5" stroke="#000" fill="none"/>
 </g>
</svg>